<svg xmlns="http://www.w3.org/2000/svg" xmlns:xlink="http://www.w3.org/1999/xlink" width="500" zoomAndPan="magnify" viewBox="0 0 375 374.999991" height="500" preserveAspectRatio="xMidYMid meet" version="1.0"><defs><g/></defs><rect x="-37.5" width="450" fill="#ffffff" y="-37.499999" height="449.999989" fill-opacity="1"/><rect x="-37.5" width="450" fill="#ffffff" y="-37.499999" height="449.999989" fill-opacity="1"/><rect x="-37.5" width="450" fill="#fbfaf9" y="-37.499999" height="449.999989" fill-opacity="1"/><g fill="#231f20" fill-opacity="1"><g transform="translate(10.796098, 231.749985)"><g><path d="M 104.378906 -19.167969 L 74.09375 -128.863281 L 41.71875 -128.863281 C 43.167969 -124.191406 42.847656 -121.9375 41.71875 -117.425781 L 14.335938 -17.394531 C 12.726562 -11.4375 11.917969 -7.894531 8.054688 0 L 14.335938 0 C 14.820312 -7.570312 16.269531 -11.4375 17.878906 -17.558594 L 25.609375 -46.066406 L 68.136719 -46.066406 L 75.546875 -19.167969 C 77.640625 -11.4375 78.765625 -8.054688 79.089844 0 L 111.949219 0 C 108.40625 -6.441406 106.632812 -10.632812 104.378906 -19.167969 Z M 26.578125 -49.449219 L 46.710938 -123.222656 L 67.167969 -49.449219 Z M 26.578125 -49.449219 "/></g></g></g><g fill="#231f20" fill-opacity="1"><g transform="translate(122.742163, 231.749985)"><g><path d="M 116.136719 -17.234375 L 66.6875 -81.503906 L 96.808594 -112.59375 C 102.605469 -118.390625 106.792969 -122.578125 114.847656 -128.863281 L 106.472656 -128.863281 C 102.285156 -122.578125 98.417969 -118.554688 91.976562 -112.109375 L 40.109375 -59.117188 L 40.109375 -94.390625 C 40.109375 -109.371094 40.589844 -116.621094 41.878906 -128.863281 L 11.277344 -128.863281 C 12.5625 -116.621094 13.046875 -109.371094 13.046875 -94.390625 L 13.046875 -34.46875 C 13.046875 -19.492188 12.5625 -12.242188 11.277344 0 L 41.878906 0 C 40.589844 -12.242188 40.109375 -19.492188 40.109375 -34.46875 L 40.109375 -54.28125 L 47.195312 -61.53125 L 81.828125 -17.234375 C 87.949219 -9.019531 90.203125 -6.28125 93.265625 0 L 133.210938 0 C 125.316406 -6.121094 121.613281 -10.148438 116.136719 -17.234375 Z M 116.136719 -17.234375 "/></g></g></g><g fill="#231f20" fill-opacity="1"><g transform="translate(252.728532, 231.749985)"><g><path d="M 6.441406 -37.371094 C 20.617188 -7.410156 40.109375 3.222656 65.878906 3.222656 C 86.980469 3.222656 105.023438 -7.570312 105.023438 -30.445312 C 105.023438 -52.1875 89.882812 -62.660156 59.4375 -82.953125 C 36.242188 -98.257812 29.15625 -103.25 29.15625 -113.398438 C 29.15625 -122.097656 36.726562 -128.699219 49.449219 -128.699219 C 70.390625 -128.699219 78.605469 -110.820312 83.277344 -93.101562 L 102.285156 -100.996094 C 87.789062 -123.0625 71.519531 -132.082031 51.0625 -132.082031 C 30.605469 -132.082031 14.015625 -122.417969 14.015625 -103.574219 C 14.015625 -86.175781 24.644531 -77.316406 50.902344 -59.4375 C 76.832031 -41.234375 90.042969 -32.699219 90.042969 -20.296875 C 90.042969 -7.570312 81.34375 -0.160156 67.8125 -0.160156 C 46.230469 -0.160156 30.765625 -20.617188 25.609375 -48 Z M 6.441406 -37.371094 "/></g></g></g></svg>