<svg xmlns="http://www.w3.org/2000/svg" xmlns:xlink="http://www.w3.org/1999/xlink" width="500" zoomAndPan="magnify" viewBox="0 0 375 374.999991" height="500" preserveAspectRatio="xMidYMid meet" version="1.0"><defs><g/></defs><rect x="-37.5" width="450" fill="#ffffff" y="-37.499999" height="449.999989" fill-opacity="1"/><rect x="-37.5" width="450" fill="#ffffff" y="-37.499999" height="449.999989" fill-opacity="1"/><rect x="-37.5" width="450" fill="#000000" y="-37.499999" height="449.999989" fill-opacity="1"/><g fill="#ffffff" fill-opacity="1"><g transform="translate(24.30228, 236.624984)"><g><path d="M 24.78125 0 L 35.40625 -28.3125 L 81.0625 -28.3125 L 91.859375 1.765625 L 114.875 -1.421875 L 68.140625 -120.359375 L 48.671875 -120.359375 L 1.765625 0 Z M 57.875 -88.859375 L 73.984375 -46.90625 L 42.125 -46.90625 Z M 57.875 -88.859375 "/></g></g></g><g fill="#ffffff" fill-opacity="1"><g transform="translate(140.945308, 236.624984)"><g><path d="M 38.0625 -37.703125 L 38.0625 0 L 15.046875 0 L 15.046875 -120.359375 L 38.0625 -120.359375 L 38.0625 -69.921875 L 90.265625 -123.015625 L 107.265625 -109.921875 L 65.84375 -66.734375 L 114.703125 0 L 86.203125 0 L 49.90625 -50.09375 Z M 38.0625 -37.703125 "/></g></g></g><g fill="#ffffff" fill-opacity="1"><g transform="translate(257.411319, 236.624984)"><g><path d="M 8.3125 -7.96875 C 12.332031 -5.488281 18.03125 -3.15625 25.40625 -0.96875 C 32.78125 1.207031 38.941406 2.296875 43.890625 2.296875 C 53.335938 2.296875 61.453125 0.882812 68.234375 -1.9375 C 75.015625 -4.769531 80.144531 -8.664062 83.625 -13.625 C 87.113281 -18.582031 88.859375 -24.304688 88.859375 -30.796875 C 88.859375 -36.578125 87.46875 -41.617188 84.6875 -45.921875 C 81.914062 -50.234375 78.460938 -53.894531 74.328125 -56.90625 C 70.203125 -59.914062 64.660156 -63.425781 57.703125 -67.4375 L 52.5625 -70.453125 L 46.90625 -73.625 C 40.882812 -77.164062 36.546875 -80.085938 33.890625 -82.390625 C 31.234375 -84.691406 29.90625 -87.554688 29.90625 -90.984375 C 29.90625 -94.992188 31.585938 -98.03125 34.953125 -100.09375 C 38.316406 -102.15625 42.65625 -103.1875 47.96875 -103.1875 C 52.570312 -103.1875 56.847656 -102.535156 60.796875 -101.234375 C 64.753906 -99.941406 69.148438 -98.113281 73.984375 -95.75 L 81.59375 -114.171875 C 69.082031 -120.179688 57.753906 -123.1875 47.609375 -123.1875 C 38.992188 -123.1875 31.585938 -121.800781 25.390625 -119.03125 C 19.203125 -116.257812 14.453125 -112.425781 11.140625 -107.53125 C 7.835938 -102.632812 6.1875 -97.117188 6.1875 -90.984375 C 6.1875 -85.203125 7.867188 -79.976562 11.234375 -75.3125 C 14.597656 -70.65625 18.609375 -66.613281 23.265625 -63.1875 C 27.929688 -59.769531 34.21875 -55.695312 42.125 -50.96875 L 47.4375 -47.796875 C 53.457031 -44.484375 57.910156 -41.617188 60.796875 -39.203125 C 63.691406 -36.785156 65.140625 -34.101562 65.140625 -31.15625 C 65.140625 -26.90625 63.304688 -23.65625 59.640625 -21.40625 C 55.984375 -19.164062 50.617188 -18.046875 43.546875 -18.046875 C 38.941406 -18.046875 33.863281 -18.898438 28.3125 -20.609375 C 22.769531 -22.328125 17.816406 -24.304688 13.453125 -26.546875 Z M 8.3125 -7.96875 "/></g></g></g></svg>